<svg xmlns="http://www.w3.org/2000/svg" width="50.099" height="37.721" viewBox="0 0 50.099 37.721"><g transform="translate(-20.25 -27.6)"><path d="M52.634,27.6H41.292A10.769,10.769,0,0,0,30.54,38.352V48.5A10.769,10.769,0,0,0,41.292,59.251H52.634A10.761,10.761,0,0,0,63.378,48.5V38.352A10.761,10.761,0,0,0,52.634,27.6Zm9.06,20.9a9.077,9.077,0,0,1-9.06,9.068H41.292A9.077,9.077,0,0,1,32.224,48.5V38.352a9.077,9.077,0,0,1,9.068-9.068H52.634a9.077,9.077,0,0,1,9.06,9.068Z" transform="translate(-1.626)" fill="#fff"/><path d="M41.966,66.643a.893.893,0,0,0-.278-.185.842.842,0,0,0-.64,0,.892.892,0,0,0-.278.185l-2.526,2.526a.842.842,0,0,0,1.2,1.187l1.086-1.086v1.339a.842.842,0,0,0,1.684,0V69.27L43.3,70.357a.842.842,0,0,0,1.2-1.187Z" transform="translate(-2.805 -6.13)" fill="#fff"/><path d="M57.966,66.643a.893.893,0,0,0-.278-.185.842.842,0,0,0-.64,0,.893.893,0,0,0-.278.185l-2.526,2.526a.842.842,0,0,0,1.2,1.187l1.086-1.086v1.339a.842.842,0,0,0,1.684,0V69.27L59.3,70.357a.842.842,0,0,0,1.2-1.187Z" transform="translate(-5.333 -6.13)" fill="#fff"/><path d="M52.555,50.791l-3.477,3.562L45.6,50.791a.842.842,0,1,0-1.187,1.2l4.665,4.774,4.681-4.791a.843.843,0,1,0-1.2-1.179Z" transform="translate(-3.779 -3.623)" fill="#fff"/><path d="M77.205,44.555c-2.24-2.071-5.532-4.6-5.658-4.673a.842.842,0,0,0-1.019,1.339s3.368,2.526,5.54,4.572a1.111,1.111,0,0,1,.421,1.12,2,2,0,0,1-.749,1.019.69.69,0,0,0-.177-.21l-4.21-3.368a.842.842,0,1,0-1.044,1.314l3.831,3.073-.269.084a15.753,15.753,0,0,1-2.526.472.843.843,0,0,0,.067,1.684h.067a19.206,19.206,0,0,0,2.812-.522c2.012-.522,3.477-1.684,3.831-3.132A2.77,2.77,0,0,0,77.205,44.555Z" transform="translate(-7.85 -1.917)" fill="#fff"/><path d="M26.9,39.877c-.126.076-3.418,2.6-5.658,4.673a2.77,2.77,0,0,0-.918,2.77c.354,1.406,1.819,2.61,3.831,3.132a19.2,19.2,0,0,0,2.812.522h.067A.843.843,0,0,0,27.1,49.29a15.753,15.753,0,0,1-2.526-.472,6.685,6.685,0,0,1-.842-.295l3.57-2.863a.842.842,0,0,0-1.044-1.314L22.288,47.53a1.684,1.684,0,0,1-.328-.606,1.111,1.111,0,0,1,.421-1.12c2.181-2,5.507-4.547,5.54-4.572A.842.842,0,1,0,26.9,39.893Z" transform="translate(0 -1.912)" fill="#fff"/></g></svg>