<svg xmlns="http://www.w3.org/2000/svg" width="44.863" height="39.28" viewBox="0 0 44.863 39.28"><g transform="translate(-23 -26.37)"><path d="M27.411,40.078a.831.831,0,0,0,.831.631h.2a.831.831,0,0,0,.631-1.03l-2.9-11.515v-.091a.083.083,0,0,1,.1,0L38.734,33.19a.831.831,0,1,0,.631-1.537L26.9,26.536a1.753,1.753,0,0,0-2.343,2.027Z" transform="translate(-0.257 -0.008)" fill="#fff"/><path d="M58.64,33.166,71.1,28.048a.083.083,0,0,1,.1,0,.1.1,0,0,1,0,.091L68.318,39.671a.831.831,0,0,0,.606,1.005h.2a.831.831,0,0,0,.831-.631l2.85-11.49A1.753,1.753,0,0,0,70.437,26.5L57.975,31.621a.831.831,0,0,0,.631,1.537Z" transform="translate(-5.831)" fill="#fff"/><path d="M67.032,54.793h-5.4V51.3l4.686-.673a.839.839,0,0,0-.233-1.662l-4.453.64V46.634A10.618,10.618,0,0,0,51.023,36H39.84A10.618,10.618,0,0,0,29.231,46.634v2.991l-4.453-.64a.839.839,0,0,0-.233,1.662l4.686.673v3.489h-5.4a.831.831,0,0,0,0,1.662h5.4v.191a10.651,10.651,0,0,0,.507,3.232l-5.192.739a.833.833,0,1,0,.116,1.662h.116l5.616-.831a10.618,10.618,0,0,0,9.446,5.816H51.023a10.618,10.618,0,0,0,9.446-5.816l5.616.831H66.2a.833.833,0,0,0,.116-1.662l-5.192-.739a10.651,10.651,0,0,0,.507-3.232v-.191h5.4a.831.831,0,1,0,0-1.662ZM59.97,56.645a8.906,8.906,0,0,1-.523,2.991l-4.76-.681a.839.839,0,1,0-.233,1.662l4.254.606a8.939,8.939,0,0,1-7.685,4.387H39.84a8.939,8.939,0,0,1-7.7-4.4l4.253-.608a.839.839,0,0,0-.233-1.662l-4.76.681a8.906,8.906,0,0,1-.523-2.991v-.191h5.417a.831.831,0,1,0,0-1.662h-5.4v-3.24l5.284.756h.116a.833.833,0,0,0,.116-1.662L30.893,49.8V46.634a8.956,8.956,0,0,1,8.948-8.973H51.023a8.956,8.956,0,0,1,8.948,8.973v3.223l-5.516.831a.833.833,0,1,0,.116,1.662h.116l5.284-.756v3.257h-5.4a.831.831,0,1,0,0,1.662h5.4Z" transform="translate(0 -1.629)" fill="#fff"/><path d="M30.216,31.6a.831.831,0,0,0-.748,1.479l4.985,2.492a.773.773,0,0,0,.374.091.83.83,0,0,0,.374-1.57Z" transform="translate(-1.026 -0.874)" fill="#fff"/><path d="M69.552,31.958a.831.831,0,0,0-1.113-.366l-4.985,2.492a.853.853,0,0,0,.374,1.612A.773.773,0,0,0,64.2,35.6l4.985-2.492a.831.831,0,0,0,.366-1.155Z" transform="translate(-6.765 -0.869)" fill="#fff"/><path d="M49.323,53.58C46.432,53.58,46,55.134,46,56.072a3.323,3.323,0,0,0,6.646,0C52.646,55.134,52.214,53.58,49.323,53.58Zm0,3.963a1.579,1.579,0,0,1-1.662-1.479c0-.274,0-.831,1.662-.831s1.662.548,1.662.831a1.579,1.579,0,0,1-1.662,1.479Z" transform="translate(-3.892 -4.604)" fill="#fff"/></g></svg>