<svg xmlns="http://www.w3.org/2000/svg" width="52.947" height="38.908" viewBox="0 0 52.947 38.908"><g transform="translate(-17.36 -26.029)"><path d="M51.588,35H41.044A10.544,10.544,0,0,0,30.5,45.544V56.088A10.544,10.544,0,0,0,41.044,66.632H51.588A10.544,10.544,0,0,0,62.132,56.088V45.544A10.544,10.544,0,0,0,51.588,35Zm0,30.01H41.044a8.922,8.922,0,0,1-8.922-8.922V45.544a8.922,8.922,0,0,1,8.922-8.922h.406c.519,8.192,8.825,14.745,19.036,14.916v4.55a8.922,8.922,0,0,1-8.9,8.922ZM60.51,49.916c-9.327-.187-16.879-5.994-17.438-13.294h8.516a8.922,8.922,0,0,1,8.922,8.922Z" transform="translate(-2.482 -1.695)" fill="#fff"/><path d="M26.614,36.769l-6.951-3.463a1.2,1.2,0,0,1-.681-1.006,1.176,1.176,0,0,1,.519-1.079l2.879-2.06a8.232,8.232,0,0,1,11.355,1.792l.868,1.184a.812.812,0,0,0,1.306-.965l-.876-1.184a9.855,9.855,0,0,0-13.586-2.149l-2.9,2.06a2.847,2.847,0,0,0,.389,4.866L25.9,38.2a.8.8,0,1,0,.714-1.436Z" transform="translate(0 0)" fill="#fff"/><path d="M77.095,29.9l-2.879-2.06A9.855,9.855,0,0,0,60.63,29.988l-.876,1.184a.812.812,0,0,0,1.306.965l.868-1.184a8.232,8.232,0,0,1,11.355-1.792l2.863,2.06a1.176,1.176,0,0,1,.511,1.1,1.2,1.2,0,0,1-.673.981l-6.951,3.439a.809.809,0,1,0,.714,1.452l6.959-3.439a2.847,2.847,0,0,0,.389-4.866Z" transform="translate(-7.98 0)" fill="#fff"/><path d="M26.365,29.508l-4.055,3.244a.808.808,0,1,0,1.006,1.265l4.055-3.244a.811.811,0,1,0-1.006-1.265Z" transform="translate(-0.877 -0.615)" fill="#fff"/><path d="M75.351,34.018a.808.808,0,1,0,1.006-1.265L72.3,29.508A.811.811,0,1,0,71.3,30.774Z" transform="translate(-10.121 -0.615)" fill="#fff"/><path d="M49.244,55.57C46.422,55.57,46,57.087,46,58a3.244,3.244,0,0,0,6.489,0C52.489,57.087,52.067,55.57,49.244,55.57Zm0,3.869A1.541,1.541,0,0,1,47.622,58c0-.268,0-.811,1.622-.811s1.622.535,1.622.811A1.541,1.541,0,0,1,49.244,59.439Z" transform="translate(-5.411 -5.581)" fill="#fff"/></g></svg>