<svg xmlns="http://www.w3.org/2000/svg" xmlns:xlink="http://www.w3.org/1999/xlink" width="82.666" height="94.051" viewBox="0 0 82.666 94.051">
  <defs>
    <linearGradient id="linear-gradient" x1="0.5" y1="-0.139" x2="0.5" y2="0.686" gradientUnits="objectBoundingBox">
      <stop offset="0" stop-color="#14b0b6"/>
      <stop offset="0.817" stop-color="#86cdd3"/>
    </linearGradient>
    <linearGradient id="linear-gradient-2" x1="0.5" y1="0.004" x2="0.5" y2="1.021" xlink:href="#linear-gradient"/>
  </defs>
  <g id="Groupe_354" data-name="Groupe 354" transform="translate(0)">
    <g id="Groupe_353" data-name="Groupe 353" transform="translate(0)">
      <circle id="Ellipse_6" data-name="Ellipse 6" cx="11.314" cy="11.314" r="11.314" transform="translate(27.908 27.308)"/>
      <circle id="Ellipse_7" data-name="Ellipse 7" cx="11.314" cy="11.314" r="11.314" transform="translate(14.708 27.308)"/>
      <path id="Tracé_22" data-name="Tracé 22" d="M431.465,312.137l-2.714-9.124c1.828-2.862,3.757-4.963,4.389-7.39.208-.8-2.774-2.848-4.606-3.546-1.165-.444-2.969.373-4.366.919-15.33,6-30.38,4.418-44.7-2.63-10.665-5.249-14.419-12.389-4.047-22.411,4.1-3.957,5.764-7.673,4.767-12.964a10.967,10.967,0,0,1,.236-3.989c.891-4.615,2.948-5.355,6.826-2.5a9.281,9.281,0,0,1,2.593,2.295c4.062,6.77,10.546,3.282,16.057,3.558.864.043,2.1-1.944,2.713-3.2,1.5-3.1,2.511-6.444,4.14-9.471,2.487-4.621,5.174-4.724,8.071-.244a67.519,67.519,0,0,1,4.286,8.77c3,6.582,6.291,13.068,8.78,19.835a19.886,19.886,0,0,1,.957,10.544c-.749,3.462-.084,5,2.777,6.935a12.874,12.874,0,0,1,5.61,14.608C441.769,307.888,437.214,310.63,431.465,312.137Zm-31.657-46.122a10.2,10.2,0,1,0,.114,20.39,10.2,10.2,0,1,0-.114-20.39Zm-18.622,13.991c2.374-.349,5.577-3.075,5.223-4.522a8.046,8.046,0,0,0-5.477-4.944c-1.381-.225-4.562,3.011-4.732,4.887C376.042,277.178,376.971,280.24,381.186,280.007Zm38.782-21.195c.559-.572,1.5-1.526,2.06-2.1-1.009-4.891-4.066-10.1-5.016-10.2-1.053-.424-1.336-.306-2.385.405-1.755,2.957-2.592,6.165-1.919,8.755C413.11,257.227,414.9,259.335,419.968,258.812Z" transform="translate(-361.058 -238.145)"/>
      <g id="Groupe_352" data-name="Groupe 352" transform="translate(0 21.027)">
        <path id="Tracé_23" data-name="Tracé 23" d="M386.171,567.047l-35.456,4.174-3.2-.521-34.369-4.236V554.6l30.11-7.755,12.861.33,30.054,4.009Z" transform="translate(-313.147 -522.604)" fill="#fff"/>
        <g id="Groupe_351" data-name="Groupe 351" transform="translate(0 0)">
          <path id="Tracé_24" data-name="Tracé 24" d="M336.907,416.638l5.068-9.779a1.407,1.407,0,0,1,2.594.235l5.09,16.607,5.09-16.607a1.407,1.407,0,0,1,2.592-.239l5.105,9.782h23.724v-6.524a3.966,3.966,0,0,0-3.966-3.966H361.594l-.039-3.313V385.5a3.966,3.966,0,0,0-3.966-3.966H341.728a3.966,3.966,0,0,0-3.965,3.966v20.65h-20.65a3.966,3.966,0,0,0-3.966,3.966v6.524Z" transform="translate(-313.147 -381.533)" fill="url(#linear-gradient)"/>
          <path id="Tracé_25" data-name="Tracé 25" d="M361.594,592.08a1.407,1.407,0,0,1-1.247-.756l-3.913-7.5L351,601.543a1.407,1.407,0,0,1-2.69,0l-5.426-17.7-3.876,7.48a1.407,1.407,0,0,1-1.249.759H313.147V598.6a3.965,3.965,0,0,0,3.966,3.965h20.65v20.65a3.966,3.966,0,0,0,3.965,3.965H357.59a3.966,3.966,0,0,0,3.966-3.965V602.57h20.65a3.965,3.965,0,0,0,3.966-3.965V592.08Z" transform="translate(-313.147 -554.162)" fill="url(#linear-gradient-2)"/>
        </g>
      </g>
      <path id="Tracé_26" data-name="Tracé 26" d="M539.716,656.022c-2.533,2.485-3.249,7.685-6.083,8.076-5.48.757-11.132-4.613-10.592-8.714.8-6.043,5.653-6.573,10.512-6.545,4.45.026,7.223,1.826,6.164,6.877C540.239,656.147,539.193,655.591,539.716,656.022Z" transform="translate(-492.23 -588.612)"/>
      <path id="Tracé_27" data-name="Tracé 27" d="M640.606,688.782l2.437-11.94a7.472,7.472,0,0,1,5.778,10.583c-.8,1.911-4.736,2.56-7.242,3.784Z" transform="translate(-592.586 -612.509)"/>
      <path id="Tracé_28" data-name="Tracé 28" d="M715.136,689.888c-.239-4.006-.479-8.013-.754-12.63,6.858.736,7.242,5.789,7.561,9.936.106,1.377-3.365,3.019-5.2,4.54Z" transform="translate(-655.543 -612.864)"/>
      <path id="Tracé_29" data-name="Tracé 29" d="M759.466,663.806s5.4,6,4.629,8.961,8.871-3.729,8.871-3.729,1.037-9.514-3.017-7.071S759.466,663.806,759.466,663.806Z" transform="translate(-694.015 -599.473)"/>
    </g>
  </g>
</svg>
