<svg xmlns="http://www.w3.org/2000/svg" width="50.544" height="40.542" viewBox="0 0 50.544 40.542"><g transform="translate(-20.43 -26.25)"><path d="M45.68,66.33h-3.3a3.167,3.167,0,1,0,0,6.333h3.3a3.167,3.167,0,0,0,0-6.333Zm0,4.626h-3.3a1.46,1.46,0,0,1,0-2.919h3.3a1.46,1.46,0,1,1,0,2.919Z" transform="translate(-2.751 -5.871)" fill="#fff"/><path d="M60.39,66.33h-3.3a3.167,3.167,0,1,0,0,6.333h3.3a3.167,3.167,0,1,0,0-6.333Zm0,4.626h-3.3a1.46,1.46,0,0,1,0-2.919h3.3a1.46,1.46,0,1,1,0,2.919Z" transform="translate(-4.906 -5.871)" fill="#fff"/><path d="M25.338,47.25a4.908,4.908,0,1,0,4.908,4.908,4.908,4.908,0,0,0-4.908-4.908Zm0,8.108a3.2,3.2,0,1,1,3.2-3.2,3.2,3.2,0,0,1-3.2,3.2Z" transform="translate(0 -3.076)" fill="#fff"/><path d="M72.517,46.35l-2.006-2.322a.854.854,0,1,0-1.263,1.144l1.775,1.98H66V37.346a11.1,11.1,0,0,0-11.1-11.1H43.8a11.1,11.1,0,0,0-11.1,11.1v3.986a.853.853,0,0,0,0,.145.794.794,0,0,0,0,.2v6.768a11.1,11.1,0,0,0,11.1,11.1H54.9A11.1,11.1,0,0,0,66,48.868h4.993a1.707,1.707,0,0,0,1.553-2.561Zm-38.1,2.091v-6.06l2.876.068a3.935,3.935,0,0,1,2.945,1.511,5.667,5.667,0,0,1,1.255,3.747l-.051,1.9v.111H34.51a10.506,10.506,0,0,1-.094-1.28Zm7.144-5.522a5.582,5.582,0,0,0-4.225-2.176l-2.919-.077V38.908a7.238,7.238,0,0,0,3.235.785H40.1a5.659,5.659,0,0,0,5.659-5.65v-1.6A7.152,7.152,0,0,0,44.2,27.957h4.268a8.475,8.475,0,0,0-.145,1.494v3.26a7.626,7.626,0,0,0,7.366,7.835h5.121a6.939,6.939,0,0,0,3.491-.964v3.593a4.977,4.977,0,0,0-.717-.068h-12.6a4.379,4.379,0,0,0-4.37,4.379v2.236H43.1v-.068l.1-1.9a7.332,7.332,0,0,0-1.639-4.831Zm6.76,4.566a2.672,2.672,0,0,1,2.663-2.672H63.572a2.561,2.561,0,0,1,.717.111v3.516a9.039,9.039,0,0,1-.1,1.28H48.32Zm15.969-10.14v.316a.8.8,0,0,0-.358.137A5.266,5.266,0,0,1,60.8,38.839H55.677a5.945,5.945,0,0,1-5.65-6.154V29.451a6.529,6.529,0,0,1,.188-1.468H54.9a9.389,9.389,0,0,1,9.389,9.363Zm-22.3-9.209A5.505,5.505,0,0,1,44.052,32.4v1.6A3.952,3.952,0,0,1,40.1,37.986h-2.45a5.48,5.48,0,0,1-2.8-.768.854.854,0,0,0-.427-.1,9.389,9.389,0,0,1,7.562-8.979ZM54.9,57.83H43.8a9.389,9.389,0,0,1-8.894-6.4H63.794a9.389,9.389,0,0,1-8.894,6.4Z" transform="translate(-1.798)" fill="#fff"/></g></svg>