<svg xmlns="http://www.w3.org/2000/svg" width="32.075" height="52.655" viewBox="0 0 32.075 52.655"><g transform="translate(-30.5 -17.977)"><path d="M52.073,44.41H41a10.519,10.519,0,0,0-10.5,10.5v9.91A10.511,10.511,0,0,0,41,75.326h11.07a10.511,10.511,0,0,0,10.5-10.5v-9.91a10.519,10.519,0,0,0-10.5-10.5ZM60.93,64.823a8.866,8.866,0,0,1-8.858,8.858H41a8.866,8.866,0,0,1-8.858-8.858v-9.91A8.866,8.866,0,0,1,41,46.055h11.07a8.866,8.866,0,0,1,8.858,8.858Z" transform="translate(0 -4.693)" fill="#fff"/><path d="M49.29,61.33c-2.969,0-3.29,1.776-3.29,2.541a3.29,3.29,0,0,0,6.58,0C52.58,63.106,52.259,61.33,49.29,61.33Zm0,4.112a1.645,1.645,0,0,1-1.645-1.571c0-.313,0-.9,1.645-.9s1.645.584,1.645.9A1.645,1.645,0,0,1,49.29,65.442Z" transform="translate(-2.752 -7.698)" fill="#fff"/><path d="M36.754,40.119a1,1,0,0,0,.3-.058.822.822,0,0,0,.461-1.069c-.041-.1-3.874-9.812-3.874-13.718,0-2.089.7-4.671,2.245-5.412,1.25-.6,2.763.28,3.824,1.119C42.84,23.489,43.827,33.9,43.925,37.7a.822.822,0,0,0,.822.822h0a.822.822,0,0,0,.822-.822c0-.592-.477-14.467-4.828-17.954-2.582-2.056-4.449-1.859-5.568-1.316C32.822,19.509,32,22.8,32,25.274c0,4.219,3.824,13.916,3.989,14.319A.822.822,0,0,0,36.754,40.119Z" transform="translate(-0.266 -0.016)" fill="#fff"/><path d="M52.822,38.483a.822.822,0,0,0,.822-.822c.115-3.8,1.086-14.212,4.219-16.72,1.053-.822,2.566-1.719,3.816-1.119,1.546.74,2.245,3.29,2.245,5.412,0,3.907-3.833,13.62-3.874,13.718a.822.822,0,0,0,.461,1.069,1,1,0,0,0,.3.058.822.822,0,0,0,.765-.526c.164-.4,3.989-10.1,3.989-14.319,0-2.467-.822-5.757-3.175-6.892-1.119-.543-2.985-.74-5.56,1.316C52.477,23.169,52,37.044,52,37.636a.822.822,0,0,0,.822.847Z" transform="translate(-3.817)" fill="#fff"/><path d="M39.316,23.164a.822.822,0,0,0-.987,1.316c2.451,1.809,3.561,10.856,3.783,14.2a.822.822,0,0,0,.822.773h.058a.822.822,0,0,0,.765-.88C43.667,37.269,42.8,25.78,39.316,23.164Z" transform="translate(-1.332 -0.892)" fill="#fff"/><path d="M60.592,23.329a.822.822,0,0,0-1.151-.164c-3.487,2.615-4.351,14.1-4.441,15.4a.822.822,0,0,0,.765.88h.058a.822.822,0,0,0,.822-.773c.222-3.29,1.332-12.337,3.783-14.2a.822.822,0,0,0,.164-1.151Z" transform="translate(-4.35 -0.892)" fill="#fff"/></g></svg>