<svg xmlns="http://www.w3.org/2000/svg" xmlns:xlink="http://www.w3.org/1999/xlink" width="27.717" height="27.337" viewBox="0 0 27.717 27.337">
  <defs>
    <linearGradient id="linear-gradient" x1="0.5" x2="0.5" y2="1" gradientUnits="objectBoundingBox">
      <stop offset="0" stop-color="#14b0b6"/>
      <stop offset="1" stop-color="#86cdd3"/>
    </linearGradient>
  </defs>
  <g id="noun_vaccine_1695853" transform="translate(0)">
    <path id="Tracé_38" data-name="Tracé 38" d="M5.414,28.737l3.222,3.222.746.746A.439.439,0,0,0,10,32.083l-.75-.746L15.7,24.894l.842.842h0l1.491,1.51a.439.439,0,0,0,.621-.621l-1.5-1.5,9.274-9.274a5.784,5.784,0,0,0,1.9-3.875c.064-.364.138-.778.239-1.252L28.9,9.107l2.762-2.762a.46.46,0,1,0-.635-.621l-2.72,2.762-1.648.345c-.46.1-.884.17-1.252.235A5.817,5.817,0,0,0,21.5,10.971l-2.96,2.946h0l-6.3,6.3-1.5-1.5a.46.46,0,0,0-.621,0,.433.433,0,0,0,0,.621l1.5,1.505h0l.842.838L6.022,28.12l-.736-.764a.46.46,0,1,0-.6.621Zm9.592-5.758L20.99,17l1.523,1.523L16.53,24.5Zm7.116-11.405a4.965,4.965,0,0,1,3.434-1.662c.377-.064.8-.138,1.284-.239l1.1-.23-.239,1.1c-.106.488-.18.921-.244,1.289a4.948,4.948,0,0,1-1.652,3.4L23.139,17.9l-3.682-3.682Zm-3.273,3.277,1.523,1.523-5.983,5.983L12.87,20.839Zm-5.767,7.443,1.984,1.984L8.622,30.721,6.657,28.737Z" transform="translate(-4.411 -5.488)" fill="url(#linear-gradient)"/>
    <path id="Tracé_39" data-name="Tracé 39" d="M48.9,22.378a.46.46,0,1,0,.17-.326A.46.46,0,0,0,48.9,22.378Z" transform="translate(-28.421 -14.373)" fill="url(#linear-gradient)"/>
    <path id="Tracé_40" data-name="Tracé 40" d="M47.91,18.621a.46.46,0,1,0-.323-.159A.46.46,0,0,0,47.91,18.621Z" transform="translate(-27.654 -12.08)" fill="url(#linear-gradient)"/>
    <path id="Tracé_41" data-name="Tracé 41" d="M44.131,22.561a.46.46,0,1,0-.321-.157A.46.46,0,0,0,44.131,22.561Z" transform="translate(-25.615 -14.207)" fill="url(#linear-gradient)"/>
    <path id="Tracé_42" data-name="Tracé 42" d="M57.521,28.481l-.336-.391-.336.391c-.166.2-.35.391-.539.585a3.672,3.672,0,0,0-1.381,2.361,2.232,2.232,0,0,0,4.465,0,3.625,3.625,0,0,0-1.381-2.375C57.867,28.863,57.682,28.67,57.521,28.481Zm-.336,4.336a1.381,1.381,0,0,1-1.353-1.381c0-.594.539-1.155,1.114-1.754.083-.083.161-.17.239-.253l.23.239c.58.6,1.123,1.169,1.123,1.767a1.381,1.381,0,0,1-1.353,1.381Z" transform="translate(-31.678 -17.687)" fill="url(#linear-gradient)"/>
  </g>
</svg>
